<?xml version="1.0" standalone="no"?>
<!DOCTYPE svg PUBLIC "-//W3C//DTD SVG 20010904//EN"
 "http://www.w3.org/TR/2001/REC-SVG-20010904/DTD/svg10.dtd">
<svg version="1.0" xmlns="http://www.w3.org/2000/svg"
 width="800.000000pt" height="800.000000pt" viewBox="0 0 800.000000 800.000000"
 preserveAspectRatio="xMidYMid meet">

<g transform="translate(0.000000,800.000000) scale(0.100000,-0.100000)"
fill="#000000" stroke="none">
<path d="M1140 5662 c-519 -900 -945 -1646 -945 -1657 0 -11 427 -759 949
-1662 l948 -1643 1903 0 1903 0 948 1643 c522 903 949 1651 949 1662 0 11
-426 757 -945 1657 l-945 1637 -1910 0 -1910 0 -945 -1637z m5705 -14 l948
-1643 -17 -30 c-10 -16 -437 -756 -949 -1643 l-931 -1612 -1901 0 -1901 0
-949 1642 -948 1643 17 30 c10 16 437 756 949 1643 l931 1612 1901 0 1901 0
949 -1642z"/>
<path d="M4795 6865 c-42 -15 -81 -55 -91 -92 -11 -41 6 -73 70 -136 88 -87
100 -123 93 -275 -7 -160 -73 -392 -111 -392 -8 0 -57 14 -108 32 -81 27 -110
32 -228 36 -114 3 -149 1 -224 -17 -276 -66 -537 -273 -655 -520 -36 -76 -56
-191 -33 -191 6 0 41 50 78 111 184 306 342 448 582 523 68 21 103 26 191 26
118 0 174 -12 284 -62 63 -29 67 -33 67 -63 0 -18 -7 -49 -15 -68 -31 -76 -8
-91 39 -26 43 62 67 68 118 33 65 -44 138 -121 191 -200 68 -103 66 -108 -50
-178 -59 -35 -84 -64 -45 -53 9 2 51 15 93 27 42 13 83 21 91 18 8 -4 25 -41
39 -85 21 -69 24 -97 24 -233 -1 -146 -2 -159 -29 -230 -68 -177 -171 -278
-463 -448 -145 -85 -169 -104 -158 -121 19 -32 248 59 432 170 173 104 285
270 328 488 24 115 17 294 -15 413 -16 60 -21 91 -14 98 6 6 62 22 125 37 96
23 137 27 264 28 147 0 151 -1 210 -30 42 -21 73 -47 104 -85 56 -71 86 -90
138 -90 30 0 50 7 73 26 46 39 60 74 60 151 0 79 -20 121 -72 153 -40 24 -64
25 -150 3 -59 -15 -82 -16 -200 -5 -198 17 -337 -2 -518 -73 -35 -14 -71 -25
-80 -25 -9 0 -34 26 -56 57 -48 70 -179 204 -256 262 -69 51 -71 65 -27 152
16 33 44 102 61 152 29 85 31 105 36 266 3 142 8 183 23 219 11 24 19 67 19
96 0 46 -4 56 -32 83 -56 52 -126 65 -203 38z"/>
<path d="M2602 6670 c-109 -23 -229 -129 -294 -261 -33 -65 -38 -85 -38 -143
0 -289 266 -857 502 -1070 61 -56 134 -100 150 -90 27 17 -11 75 -197 309
-264 334 -355 507 -372 715 -8 92 18 216 65 310 35 70 41 77 97 105 54 27 72
30 170 33 92 3 120 0 175 -18 297 -98 458 -436 502 -1050 4 -44 27 -47 48 -5
12 24 15 69 15 215 -1 166 -3 196 -27 291 -44 175 -98 275 -221 405 -179 192
-401 290 -575 254z"/>
<path d="M3057 5653 c-14 -13 -6 -36 30 -96 20 -33 49 -96 64 -140 31 -90 45
-110 60 -87 19 29 -19 159 -70 239 -36 55 -75 94 -84 84z"/>
<path d="M2853 5543 c-24 -8 -13 -26 50 -87 34 -34 84 -94 110 -134 46 -70 68
-84 75 -49 12 59 -187 287 -235 270z"/>
<path d="M4155 5504 c-100 -52 -158 -181 -105 -234 62 -62 260 40 260 134 0
41 -32 84 -76 102 -41 17 -42 17 -79 -2z"/>
<path d="M2050 5236 c-99 -29 -182 -71 -236 -119 -79 -69 -96 -204 -41 -313
72 -143 286 -264 518 -295 103 -14 307 -6 371 15 60 19 91 36 83 44 -4 4 -91
8 -193 9 -264 2 -436 33 -572 104 -69 36 -92 54 -124 103 -33 49 -35 130 -6
193 28 63 102 137 163 163 100 43 260 26 435 -46 87 -36 242 -122 316 -176 69
-50 85 -34 37 36 -85 123 -266 228 -486 282 -122 29 -168 29 -265 0z"/>
<path d="M3362 5153 c-8 -3 -34 -32 -58 -65 -38 -52 -44 -67 -44 -110 0 -73
35 -200 85 -305 105 -224 279 -408 496 -527 140 -77 350 -127 451 -108 54 11
151 76 146 100 -2 9 -48 30 -128 57 -302 102 -453 189 -616 357 -87 89 -159
191 -204 291 -35 77 -49 129 -64 232 -9 68 -14 80 -31 82 -11 1 -26 -1 -33 -4z"/>
<path d="M3837 5098 c-11 -36 37 -216 85 -315 29 -60 33 -64 117 -106 132 -68
280 -110 316 -89 13 6 -3 14 -62 32 -216 63 -346 195 -413 421 -20 66 -33 84
-43 57z"/>
<path d="M4573 5021 c-55 -40 -85 -85 -90 -134 -7 -64 12 -82 84 -81 97 1 203
69 203 131 0 32 -25 78 -52 97 -37 26 -99 20 -145 -13z"/>
<path d="M2566 4871 c-8 -13 13 -26 74 -46 30 -10 80 -30 110 -45 54 -27 80
-29 80 -8 0 30 -157 108 -217 108 -23 0 -44 -4 -47 -9z"/>
<path d="M3061 4751 c-46 -50 -81 -132 -81 -191 0 -106 68 -283 154 -403 118
-166 320 -303 574 -391 120 -41 175 -45 235 -15 57 29 109 68 102 79 -3 4 -29
13 -57 20 -107 25 -295 91 -373 131 -277 141 -464 410 -491 706 -9 92 -23 107
-63 64z"/>
<path d="M2540 4731 c-14 -4 -25 -13 -25 -21 0 -11 23 -18 85 -27 47 -7 106
-15 133 -19 38 -5 47 -4 47 8 0 19 -59 45 -129 58 -60 11 -74 11 -111 1z"/>
<path d="M2766 4289 c-39 -78 -43 -106 -22 -189 35 -144 106 -260 229 -377
144 -135 353 -242 492 -250 65 -4 74 -2 130 30 86 49 84 60 -22 92 -258 76
-348 122 -471 239 -170 163 -239 285 -260 461 -10 87 -30 85 -76 -6z"/>
<path d="M4833 4189 c-37 -11 -51 -28 -33 -39 7 -4 47 -11 89 -15 300 -26 584
-108 747 -217 231 -154 321 -414 220 -634 -30 -65 -70 -95 -171 -130 -67 -23
-98 -27 -190 -28 -119 -1 -180 11 -288 55 -131 54 -237 127 -492 338 -197 163
-309 240 -313 217 -6 -31 62 -132 147 -216 233 -232 749 -477 1019 -483 60 -2
76 3 152 40 291 143 349 401 154 694 -64 97 -190 222 -289 287 -91 60 -214
104 -357 127 -102 16 -344 19 -395 4z"/>
<path d="M4654 3979 c-20 -32 142 -98 262 -106 58 -4 83 -2 89 6 12 21 -9 32
-85 42 -41 6 -110 24 -154 40 -88 32 -102 34 -112 18z"/>
<path d="M4585 3860 c-28 -45 239 -210 300 -186 30 11 13 28 -67 65 -46 22
-112 60 -147 85 -69 49 -76 52 -86 36z"/>
<path d="M2586 3798 c-3 -18 -12 -88 -21 -155 -22 -176 -45 -231 -145 -357
-34 -43 -109 -126 -167 -187 -58 -60 -103 -112 -99 -116 9 -9 101 37 336 167
107 59 211 113 230 118 19 6 121 18 226 27 189 15 276 31 276 50 -1 5 -54 25
-119 45 -171 52 -226 82 -308 164 -52 52 -85 98 -125 173 -30 56 -60 103 -66
103 -7 0 -14 -15 -18 -32z"/>
<path d="M4186 3548 c4 -7 44 -55 87 -107 289 -343 351 -622 173 -779 -149
-130 -299 -83 -411 130 -68 129 -136 382 -153 573 -13 150 -51 74 -51 -106 -2
-378 243 -749 496 -749 117 0 194 45 243 140 32 63 62 199 62 285 0 69 -5 92
-35 168 -78 193 -193 349 -316 428 -46 30 -109 41 -95 17z"/>
<path d="M4070 3513 c0 -64 103 -229 136 -216 20 8 18 23 -13 68 -15 22 -42
70 -60 107 -35 72 -63 90 -63 41z"/>
<path d="M3964 3494 c-14 -55 27 -216 62 -245 13 -10 17 -10 25 2 5 8 7 23 3
34 -6 21 -42 174 -50 213 -6 30 -32 28 -40 -4z"/>
<path d="M1536 2204 c-3 -8 -6 -117 -6 -240 l0 -225 43 -18 c94 -40 87 -46 87
73 l0 104 73 -5 c63 -5 75 -3 99 16 33 27 52 90 44 149 -12 91 -60 137 -150
146 -166 17 -184 17 -190 0z m188 -60 c22 -22 29 -56 24 -120 -6 -65 -25 -90
-62 -80 -26 6 -26 7 -26 111 0 104 0 105 24 105 14 0 32 -7 40 -16z"/>
<path d="M6300 2203 c-43 -22 -76 -71 -85 -123 -17 -100 28 -178 118 -205 72
-21 97 -40 97 -73 0 -40 -24 -68 -74 -87 -34 -13 -49 -14 -64 -6 -24 13 -38
67 -28 106 8 30 0 31 -33 6 -21 -16 -23 -24 -19 -70 7 -69 28 -91 87 -91 115
1 231 115 231 228 0 60 -53 114 -138 138 -91 27 -123 75 -84 124 14 17 29 23
62 23 50 0 67 -17 77 -75 6 -43 4 -42 36 -27 22 10 23 15 17 51 -11 60 -47 90
-112 95 -38 3 -63 -1 -88 -14z"/>
<path d="M1927 2138 c-4 -29 -7 -163 -7 -298 l-1 -244 48 -17 c75 -27 73 -28
73 59 0 42 3 107 7 145 5 56 9 67 24 67 39 0 54 -46 59 -189 l5 -135 64 -19
c34 -10 65 -17 67 -15 2 3 -1 31 -6 64 -6 32 -10 84 -10 114 0 73 -15 121 -45
150 l-24 23 32 21 c73 49 76 198 5 273 -29 31 -66 40 -184 48 l-101 6 -6 -53z
m184 -27 c18 -14 23 -31 27 -80 7 -92 -23 -144 -72 -125 -13 5 -16 23 -16 115
0 100 2 109 19 109 10 0 29 -8 42 -19z"/>
<path d="M5942 2183 l-74 -4 7 -327 c4 -180 9 -328 10 -330 2 -2 70 19 151 45
147 48 149 49 152 80 l3 31 -78 -24 c-43 -13 -83 -24 -89 -24 -10 0 -30 227
-20 237 2 2 31 9 65 15 60 11 61 12 61 43 l0 32 -42 -8 c-91 -17 -88 -20 -88
80 l0 89 75 7 c74 7 75 8 75 36 l0 29 -67 -2 c-38 -1 -101 -4 -141 -5z"/>
<path d="M5592 2163 l-74 -4 7 -362 c4 -199 9 -364 11 -366 4 -4 242 55 282
70 17 7 22 16 22 43 l0 34 -89 -23 -89 -22 -4 136 c-2 75 -3 137 -2 139 0 1
29 7 63 13 61 11 61 11 61 45 l0 35 -65 -7 -65 -7 0 100 0 100 46 7 c26 3 60
6 75 6 26 0 29 3 29 35 l0 35 -67 -2 c-38 -1 -101 -4 -141 -5z"/>
<path d="M2430 2158 c0 -2 -27 -129 -61 -283 -90 -418 -84 -386 -68 -396 27
-17 35 -8 48 53 7 35 15 66 17 69 3 6 30 2 110 -16 17 -4 23 -15 28 -52 17
-117 12 -109 77 -123 33 -7 61 -11 63 -9 4 4 -89 694 -99 737 -5 19 -12 22
-60 22 -30 0 -55 -1 -55 -2z m55 -496 c-1 -1 -25 3 -54 9 -41 8 -51 14 -47 27
3 10 10 44 16 77 6 33 19 92 28 130 l15 70 22 -155 c12 -85 21 -156 20 -158z"/>
<path d="M2821 2143 c-147 -73 -202 -477 -93 -689 44 -86 134 -136 197 -110
18 8 36 19 39 25 12 18 23 13 30 -14 4 -15 14 -25 25 -25 16 0 19 13 24 122 4
66 7 165 7 218 l0 97 -87 7 c-94 7 -103 3 -103 -45 0 -23 5 -28 36 -34 l37 -6
-7 -126 c-7 -132 -15 -163 -45 -163 -26 0 -48 29 -60 80 -13 56 -14 325 -1
443 12 114 34 161 77 165 47 5 66 -30 71 -134 l4 -84 30 22 c29 20 30 24 25
76 -3 30 -17 77 -31 106 -40 81 -101 105 -175 69z"/>
<path d="M4640 2132 c-41 -22 -93 -102 -115 -177 -23 -80 -37 -241 -30 -340
16 -219 69 -329 163 -342 53 -7 84 1 122 33 44 38 69 93 82 184 13 88 5 123
-31 133 -20 5 -21 1 -21 -67 0 -128 -47 -228 -99 -211 -45 14 -68 103 -77 293
-10 214 19 420 63 436 45 18 78 -42 89 -157 4 -42 10 -77 14 -77 4 0 15 9 25
20 39 43 -2 228 -58 265 -40 26 -87 29 -127 7z"/>
<path d="M5163 2143 l-61 -4 4 -227 c2 -125 7 -304 10 -398 l6 -171 118 23
c65 12 131 29 146 37 65 34 94 95 94 199 -1 94 -25 151 -74 174 l-34 17 28 24
c76 64 69 263 -12 312 -24 15 -121 21 -225 14z m144 -90 c13 -20 18 -47 18
-108 0 -94 -18 -135 -60 -135 -23 0 -25 3 -25 53 0 28 -3 89 -7 135 l-6 82 31
0 c23 0 36 -7 49 -27z m25 -353 c22 -44 24 -166 4 -215 -11 -25 -23 -36 -48
-43 -32 -8 -33 -8 -40 27 -4 20 -7 89 -7 154 l-1 118 38 -3 c31 -3 40 -9 54
-38z"/>
<path d="M3108 1835 c-5 -560 -6 -520 20 -523 l22 -3 1 223 c1 123 4 237 8
253 4 20 17 -50 41 -218 19 -136 37 -252 40 -257 3 -5 20 -13 38 -16 38 -8 30
-34 82 285 22 134 41 245 42 247 2 1 1 -120 0 -270 l-4 -273 57 -7 c32 -3 59
-5 60 -4 2 2 6 195 10 431 l7 427 -65 0 -65 0 -10 -57 c-5 -32 -22 -137 -37
-233 -15 -96 -31 -178 -34 -182 -4 -5 -19 85 -35 200 -15 114 -30 222 -33 240
l-5 32 -69 0 -69 0 -2 -295z"/>
<path d="M3686 2093 c-3 -15 -19 -116 -36 -223 -40 -254 -89 -549 -95 -578 -5
-21 -2 -23 22 -20 26 3 28 7 42 86 l14 82 67 0 68 0 6 -45 c3 -25 9 -65 12
-89 6 -41 8 -44 42 -50 72 -12 92 -8 92 17 -1 12 -27 207 -58 432 l-57 410
-57 3 c-54 3 -56 2 -62 -25z m47 -390 l23 -173 -54 0 -55 0 6 38 c34 226 51
325 54 317 1 -6 13 -88 26 -182z"/>
<path d="M3910 2075 l0 -45 55 0 55 0 2 -387 3 -388 68 -3 67 -3 0 391 0 390
55 0 55 0 0 45 0 45 -180 0 -180 0 0 -45z"/>
<path d="M4303 1818 c4 -166 7 -359 7 -430 l0 -128 59 0 c33 0 63 5 67 11 3 6
3 200 -1 430 l-7 419 -66 0 -65 0 6 -302z"/>
</g>
</svg>
